<svg id="Layer_1" data-name="Layer 1" xmlns="http://www.w3.org/2000/svg" width="128" height="35" viewBox="0 0 128 35"><title>aquatic-informatics</title><circle cx="17.5" cy="17.5" r="15.75" style="fill:#fff"/><path d="M44.59,21.24V32.8H42.85V21.24Z" style="fill:#0083d7"/><path d="M47.83,25.51h1.69v.67a2.78,2.78,0,0,1,2-.87,2.51,2.51,0,0,1,2,.8,3.26,3.26,0,0,1,.61,2.22V32.8H52.42V28.73a2.65,2.65,0,0,0-.3-1.49,1.2,1.2,0,0,0-1.06-.42,1.29,1.29,0,0,0-1.19.55,3.81,3.81,0,0,0-.35,1.91V32.8H47.83Z" style="fill:#0083d7"/><path d="M59.25,27.08V32.8H57.56V27.08H57V25.51h.6V22.7A3.06,3.06,0,0,1,58,20.75,2.34,2.34,0,0,1,60,20a3.14,3.14,0,0,1,1.13.26v1.72l-.17-.09a2.17,2.17,0,0,0-.89-.28.61.61,0,0,0-.61.33,2.94,2.94,0,0,0-.16,1.21v2.4h1.83v1.57Z" style="fill:#0083d7"/><path d="M63,29.1a3.65,3.65,0,0,1,1.13-2.69,4,4,0,0,1,5.52,0,3.9,3.9,0,0,1,0,5.49A3.88,3.88,0,0,1,66.83,33a3.7,3.7,0,0,1-2.75-1.13A3.74,3.74,0,0,1,63,29.1Zm1.72,0a2.47,2.47,0,0,0,.59,1.73,2.27,2.27,0,0,0,3.15,0,2.71,2.71,0,0,0,0-3.4,2.25,2.25,0,0,0-3.14,0A2.33,2.33,0,0,0,64.69,29.13Z" style="fill:#0083d7"/><path d="M73.6,25.51h1.68v.65a3.36,3.36,0,0,1,.83-.67,1.91,1.91,0,0,1,.86-.18,2.73,2.73,0,0,1,1.4.43l-.77,1.54a1.62,1.62,0,0,0-.94-.34c-.92,0-1.38.69-1.38,2.08V32.8H73.6Z" style="fill:#0083d7"/><path d="M80.93,25.51h1.68v.67a3.43,3.43,0,0,1,.83-.69,2.07,2.07,0,0,1,.92-.18,2.25,2.25,0,0,1,2,1.07,2.55,2.55,0,0,1,2.15-1.07c1.64,0,2.46,1,2.46,3V32.8H89.23v-4A3.12,3.12,0,0,0,89,27.27a.91.91,0,0,0-.86-.44,1.09,1.09,0,0,0-1,.52A3.39,3.39,0,0,0,86.78,29V32.8H85.09v-4c0-1.3-.37-1.94-1.12-1.94a1.1,1.1,0,0,0-1,.53A3.25,3.25,0,0,0,82.61,29V32.8H80.93Z" style="fill:#0083d7"/><path d="M99.2,25.51h1.69V32.8H99.2V32a3.22,3.22,0,0,1-4.74-.12,4.07,4.07,0,0,1-1-2.78,4,4,0,0,1,1-2.73,3.18,3.18,0,0,1,2.46-1.09,3.11,3.11,0,0,1,2.28,1Zm-4,3.62a2.52,2.52,0,0,0,.57,1.71,1.83,1.83,0,0,0,1.45.66,1.94,1.94,0,0,0,1.51-.64,2.52,2.52,0,0,0,.57-1.69,2.49,2.49,0,0,0-.57-1.69,2,2,0,0,0-3,0A2.48,2.48,0,0,0,95.2,29.13Z" style="fill:#0083d7"/><path d="M106.12,27.08V32.8h-1.69V27.08h-.71V25.51h.71V22.84h1.69v2.67h1.31v1.57Z" style="fill:#0083d7"/><path d="M110,22.48a1,1,0,0,1,.33-.76,1.06,1.06,0,0,1,1.54,0,1,1,0,0,1,.33.77,1,1,0,0,1-.33.77,1,1,0,0,1-.77.33,1.13,1.13,0,0,1-1.1-1.11Zm1.94,3V32.8h-1.68V25.51Z" style="fill:#0083d7"/><path d="M120.35,25.82v2.24a4.12,4.12,0,0,0-1-1,2,2,0,0,0-1.06-.27,2.1,2.1,0,0,0-1.58.66,2.34,2.34,0,0,0-.63,1.67,2.41,2.41,0,0,0,.61,1.68,2,2,0,0,0,1.56.66,2.17,2.17,0,0,0,1.07-.26,4.34,4.34,0,0,0,1.06-1v2.22a4.36,4.36,0,0,1-2,.54,3.92,3.92,0,0,1-2.83-1.1,3.63,3.63,0,0,1-1.14-2.73,3.7,3.7,0,0,1,1.16-2.75,3.87,3.87,0,0,1,2.82-1.12A4.29,4.29,0,0,1,120.35,25.82Z" style="fill:#0083d7"/><path d="M127.29,26.75l-1.39.74c-.22-.45-.5-.67-.82-.67a.59.59,0,0,0-.4.15.5.5,0,0,0-.16.39c0,.28.32.56,1,.83a5.68,5.68,0,0,1,1.8,1.07,1.81,1.81,0,0,1,.47,1.31,2.28,2.28,0,0,1-.78,1.76,2.78,2.78,0,0,1-4.42-1.11l1.44-.67a3.18,3.18,0,0,0,.45.67,1,1,0,0,0,.73.28c.57,0,.86-.26.86-.78,0-.3-.22-.57-.66-.83l-.51-.25-.52-.25a3.25,3.25,0,0,1-1-.72,1.77,1.77,0,0,1-.38-1.17,2.09,2.09,0,0,1,.65-1.57,2.25,2.25,0,0,1,1.62-.62A2.21,2.21,0,0,1,127.29,26.75Z" style="fill:#0083d7"/><path d="M52.69,13.9H46.47l-1.62,3.53H42.49L49.67,2l6.94,15.44h-2.4Zm-.9-2.06L49.64,6.91l-2.26,4.93Z" style="fill:#23409a"/><path d="M72.54,17.7H69.79l-1.14-1.17A7.32,7.32,0,0,1,64.6,17.7a7.58,7.58,0,0,1-5.12-2A7,7,0,0,1,57,10.24a7.24,7.24,0,0,1,2.31-5.48A7.56,7.56,0,0,1,69.59,4.5a7.28,7.28,0,0,1,2.63,5.84,7.09,7.09,0,0,1-2.07,5Zm-6-6,2.11,2.1A5,5,0,0,0,70,10.2a5.38,5.38,0,0,0-1.55-3.93A5.2,5.2,0,0,0,64.6,4.69a5.07,5.07,0,0,0-3.83,1.58,5.52,5.52,0,0,0-1.52,4,5.1,5.1,0,0,0,1.56,3.85,5.26,5.26,0,0,0,3.72,1.54A5.16,5.16,0,0,0,67.1,15l-3.42-3.32Z" style="fill:#23409a"/><path d="M77.17,2.91v8.75a4.85,4.85,0,0,0,.61,2.73,3.28,3.28,0,0,0,5.15,0,4.69,4.69,0,0,0,.61-2.73V2.91h2.19v9.35A5.2,5.2,0,0,1,84.3,16a5.52,5.52,0,0,1-7.89,0A5.24,5.24,0,0,1,75,12.26V2.91Z" style="fill:#23409a"/><path d="M97.13,13.9H90.91l-1.62,3.53H86.93L94.12,2l6.93,15.44h-2.4Zm-.9-2.06L94.08,6.91l-2.26,4.93Z" style="fill:#23409a"/><path d="M106.06,5V17.43h-2.19V5h-3.34V2.91h8.86V5Z" style="fill:#23409a"/><path d="M113.54,2.91V17.43h-2.19V2.91Z" style="fill:#23409a"/><path d="M127.77,3.69V6.28a6.09,6.09,0,0,0-3.94-1.59,5,5,0,0,0-3.77,1.61,5.43,5.43,0,0,0-1.54,3.92,5.26,5.26,0,0,0,1.54,3.85,5.09,5.09,0,0,0,3.78,1.57,4.68,4.68,0,0,0,2-.37,6.8,6.8,0,0,0,.94-.51,11.39,11.39,0,0,0,1-.77v2.64a8,8,0,0,1-4,1.07,7.3,7.3,0,0,1-5.32-2.18,7.2,7.2,0,0,1-2.19-5.28,7.48,7.48,0,0,1,1.83-4.95A7.31,7.31,0,0,1,124,2.62,7.43,7.43,0,0,1,127.77,3.69Z" style="fill:#23409a"/><path d="M17.5,0A17.5,17.5,0,1,0,35,17.5,17.51,17.51,0,0,0,17.5,0Zm0,31.7A14.2,14.2,0,1,1,31.7,17.5,14.2,14.2,0,0,1,17.5,31.7Z" style="fill:#93959a"/><circle cx="17.5" cy="20.69" r="1.6" style="fill:#0083d7"/><path d="M20.7,20.49c0,.07,0,.13,0,.2a3.21,3.21,0,1,1-6.42,0c0-.07,0-.13,0-.2H11.09c0,.07,0,.13,0,.2a6.42,6.42,0,0,0,12.84,0c0-.07,0-.13,0-.2Z" style="fill:#0083d7"/><polygon points="17.48 7.89 11.36 18.89 14.82 18.89 17.5 14.27 20.18 18.89 23.61 18.89 17.48 7.89" style="fill:#23409a"/></svg>